<?xml version="1.0" encoding="iso-8859-1"?>
<svg version="1.1" id="Layer_1" xmlns="http://www.w3.org/2000/svg" xmlns:xlink="http://www.w3.org/1999/xlink" x="0px" y="0px"
	 viewBox="0 0 512 512" style="enable-background:new 0 0 512 512;" xml:space="preserve">
  <path style="fill:#FF4181;" d="M295.302,321.267c0,56.641,45.917,102.556,102.556,102.556s102.558-45.915,102.558-102.556
    C500.416,256,397.86,88.176,397.86,88.176S295.302,256,295.302,321.267z"/>
  <path style="fill:#FFCE47;" d="M153.444,321.267c0,56.641,45.917,102.556,102.556,102.556s102.556-45.917,102.556-102.556
    C358.556,256,256,88.176,256,88.176S153.444,256,153.444,321.267z"/>
  <path style="fill:#4EB9FF;" d="M11.584,321.267c0,56.641,45.917,102.556,102.556,102.556s102.556-45.917,102.556-102.556
    C216.696,256,114.14,88.176,114.14,88.176S11.584,256,11.584,321.267z"/>
  <g>
    <path style="fill:#01121C;" d="M459.873,321.267c0-6.398-5.186-11.584-11.584-11.584s-11.584,5.186-11.584,11.584
      c0,21.419-17.427,38.846-38.846,38.846c-6.398,0-11.584,5.186-11.584,11.584c0,6.398,5.186,11.584,11.584,11.584
      C432.054,383.281,459.873,355.462,459.873,321.267z"/>
    <path style="fill:#01121C;" d="M407.744,82.135c-2.104-3.444-5.849-5.544-9.884-5.544s-7.78,2.1-9.884,5.544
      c-0.261,0.425-26.303,43.138-51.916,93.242c-2.912,5.697-0.654,12.675,5.042,15.587c5.697,2.911,12.675,0.654,15.587-5.042
      c15.622-30.561,31.401-58.321,41.199-75.103c32.302,55.191,90.945,164.817,90.945,210.448c0,50.163-40.811,90.973-90.973,90.973
      c-12.286,0-24.198-2.404-35.407-7.144c-5.895-2.493-12.69,0.264-15.18,6.156c-2.492,5.893,0.264,12.689,6.156,15.18
      c14.08,5.955,29.029,8.975,44.432,8.975c62.938,0,114.14-51.203,114.14-114.14C512,253.52,412.001,89.102,407.744,82.135z"/>
    <path style="fill:#01121C;" d="M318.013,321.267c0-6.398-5.186-11.584-11.584-11.584c-6.398,0-11.584,5.186-11.584,11.584
      c0,21.419-17.427,38.846-38.846,38.846c-6.398,0-11.584,5.186-11.584,11.584c0,6.398,5.186,11.584,11.584,11.584
      C290.195,383.281,318.013,355.462,318.013,321.267z"/>
    <path style="fill:#01121C;" d="M265.884,82.135c-2.104-3.444-5.849-5.544-9.884-5.544c-4.036,0-7.78,2.1-9.884,5.544
      c-0.261,0.425-26.303,43.138-51.915,93.243c-2.912,5.696-0.654,12.675,5.042,15.587c5.696,2.912,12.674,0.654,15.587-5.042
      c15.622-30.561,31.401-58.321,41.197-75.102c32.303,55.189,90.945,164.814,90.945,210.447c0,50.163-40.811,90.973-90.973,90.973
      c-12.861,0-25.286-2.626-36.929-7.805c-5.845-2.602-12.692,0.029-15.292,5.876c-2.601,5.845,0.03,12.691,5.876,15.292
      c14.626,6.507,30.218,9.804,46.344,9.804c62.938,0,114.14-51.203,114.14-114.14C370.14,253.52,270.141,89.102,265.884,82.135z"/>
    <path style="fill:#01121C;" d="M124.024,82.135c-2.104-3.444-5.849-5.544-9.884-5.544s-7.78,2.1-9.884,5.544
      C99.999,89.102,0,253.52,0,321.267c0,62.938,51.203,114.14,114.14,114.14s114.141-51.203,114.141-114.14
      C228.281,253.52,128.281,89.102,124.024,82.135z M114.14,412.24c-50.162,0-90.973-40.809-90.973-90.973
      c0-45.648,58.677-155.324,90.974-210.496c32.298,55.167,90.973,164.83,90.973,210.496
      C205.114,371.431,164.303,412.24,114.14,412.24z"/>
    <path style="fill:#01121C;" d="M164.571,309.684c-6.398,0-11.584,5.186-11.584,11.584c0,21.419-17.427,38.846-38.847,38.846
      c-6.398,0-11.584,5.186-11.584,11.584c0,6.398,5.186,11.584,11.584,11.584c34.195,0,62.015-27.819,62.015-62.013
      C176.155,314.87,170.969,309.684,164.571,309.684z"/>
  </g>
</svg>
